<svg xmlns="http://www.w3.org/2000/svg" width="24" height="24" viewBox="0 0 24 24"
     fill="currentColor" stroke="currentColor" stroke-width="2"
     stroke-linecap="round" stroke-linejoin="round" fill-rule="evenodd">
  <path d="M 8.5,5 C 7,5 6,6 6,7.5 C 6,8.2 6.2,8.8 6.8,9.2 C 5.5,10.5 5,12.5 6,14.5 C 7,17 9,18.5 12,18.5 C 15,18.5 17,17 18,14.5 C 19,12.5 18.5,10.5 17.2,9.2 C 17.8,8.8 18,8.2 18,7.5 C 18,6 17,5 15.5,5 C 14,5 13,6 12.5,7.5 L 11.5,7.5 C 11,6 10,5 8.5,5 Z
           M 7,7.5 C 7,6.5 7.5,6 8.5,6 C 9.5,6 10,6.5 10,7.5 C 10,8.5 9.5,9 8.5,9 C 7.5,9 7,8.5 7,7.5 Z
           M 14,7.5 C 14,6.5 14.5,6 15.5,6 C 16.5,6 17,6.5 17,7.5 C 17,8.5 16.5,9 15.5,9 C 14.5,9 14,8.5 14,7.5 Z" />
  <path data-role="detail" fill="none" d="M 8,13.5 C 10,15 14,15 16,13.5" />
  <path data-role="leg" d="M 7,12.5 L 4,13.5 L 3.5,17 L 5.5,19 L 8,17 L 6,15.5 L 8,14 Z" />
  <path data-role="leg" d="M 17,12.5 L 20,13.5 L 20.5,17 L 18.5,19 L 16,17 L 18,15.5 L 16,14 Z" />
</svg>
