<svg xmlns="http://www.w3.org/2000/svg" width="24" height="24" viewBox="0 0 24 24"
     fill="currentColor" stroke="currentColor" stroke-width="2"
     stroke-linecap="round" stroke-linejoin="round" fill-rule="evenodd">
  <path d="M 12 8 a 2.6 2.6 0 1 0 0 5.2 a 2.6 2.6 0 1 0 0 -5.2 z M 12 13.6 a 3.4 3.6 0 1 0 0 7.2 a 3.4 3.6 0 1 0 0 -7.2 z" />
  <path fill="none" d="M 9.6 9.4 L 6.2 5.6 L 3.2 8" />
  <path fill="none" d="M 9.4 11.8 L 5 10.4 L 2.6 13" />
  <path fill="none" d="M 14.4 9.4 L 17.8 5.6 L 20.8 8" />
  <path fill="none" d="M 14.6 11.8 L 19 10.4 L 21.4 13" />
  <path fill="none" d="M 9 15 L 5.4 16 L 4 19.4" />
  <path fill="none" d="M 15 15 L 18.6 16 L 20 19.4" />
</svg>
