<svg xmlns="http://www.w3.org/2000/svg" width="24" height="24" viewBox="0 0 24 24"
     fill="none" stroke="currentColor" stroke-width="2"
     stroke-linecap="round" stroke-linejoin="round" fill-rule="evenodd">
  <path d="M 12,7.8 A 2,2 0 1 0 12,11.8 A 2,2 0 0 0 12,7.8 Z M 12,12.4 A 2.7,3.1 0 1 0 12,18.5 A 2.7,3.1 0 1 0 12,12.4 Z" />
  <path data-role="leg" fill="none" d="M 10.1,8.7 L 6.9,5.5 L 4.4,6.8" />
  <path data-role="leg" fill="none" d="M 10,9.7 L 6.1,8 L 3.8,9.7" />
  <path data-role="leg" fill="none" d="M 10,10.7 L 5.9,11.2 L 4,13.1" />
  <path data-role="leg" fill="none" d="M 10.3,11.6 L 6.9,13.8 L 5.5,16.3" />
  <path data-role="leg" fill="none" d="M 13.9,8.7 L 17.1,5.5 L 19.6,6.8" />
  <path data-role="leg" fill="none" d="M 14,9.7 L 17.9,8 L 20.2,9.7" />
  <path data-role="leg" fill="none" d="M 14,10.7 L 18.1,11.2 L 20,13.1" />
  <path data-role="leg" fill="none" d="M 13.7,11.6 L 17.1,13.8 L 18.5,16.3" />
</svg>
